<?xml version="1.0" encoding="UTF-8"?>
<!DOCTYPE svg PUBLIC "-//W3C//DTD SVG 1.1//EN" "http://www.w3.org/Graphics/SVG/1.1/DTD/svg11.dtd">
<svg xmlns="http://www.w3.org/2000/svg" version="1.1" width="500px" height="500px" style="shape-rendering:geometricPrecision; text-rendering:geometricPrecision; image-rendering:optimizeQuality; fill-rule:evenodd; clip-rule:evenodd" xmlns:xlink="http://www.w3.org/1999/xlink">
<g><path style="opacity:1" fill="#f9faf9" d="M 465.5,-0.5 C 465.833,-0.5 466.167,-0.5 466.5,-0.5C 466.315,0.170143 465.981,0.170143 465.5,-0.5 Z"/></g>
<g><path style="opacity:1" fill="#f9faf9" d="M 88.5,13.5 C 89.8333,14.1667 89.8333,14.1667 88.5,13.5 Z"/></g>
<g><path style="opacity:1" fill="#f9faf9" d="M 38.5,15.5 C 39.8333,16.1667 39.8333,16.1667 38.5,15.5 Z"/></g>
<g><path style="opacity:1" fill="#f9faf9" d="M 138.5,17.5 C 139.833,18.1667 139.833,18.1667 138.5,17.5 Z"/></g>
<g><path style="opacity:1" fill="#f9faf9" d="M 282.5,20.5 C 283.833,21.1667 283.833,21.1667 282.5,20.5 Z"/></g>
<g><path style="opacity:1" fill="#f9faf9" d="M 372.5,35.5 C 373.833,36.1667 373.833,36.1667 372.5,35.5 Z"/></g>
<g><path style="opacity:1" fill="#f9faf9" d="M 65.5,42.5 C 66.8333,43.1667 66.8333,43.1667 65.5,42.5 Z"/></g>
<g><path style="opacity:1" fill="#f9faf9" d="M 75.5,42.5 C 76.8333,43.1667 76.8333,43.1667 75.5,42.5 Z"/></g>
<g><path style="opacity:1" fill="#f9faf9" d="M 154.5,64.5 C 155.833,65.1667 155.833,65.1667 154.5,64.5 Z"/></g>
<g><path style="opacity:1" fill="#f9faf9" d="M 339.5,68.5 C 340.833,69.1667 340.833,69.1667 339.5,68.5 Z"/></g>
<g><path style="opacity:1" fill="#f9faf9" d="M 180.5,71.5 C 181.833,72.1667 181.833,72.1667 180.5,71.5 Z"/></g>
<g><path style="opacity:1" fill="#f9faf9" d="M 58.5,72.5 C 59.8333,73.1667 59.8333,73.1667 58.5,72.5 Z"/></g>
<g><path style="opacity:1" fill="#f9faf9" d="M 402.5,72.5 C 403.833,73.1667 403.833,73.1667 402.5,72.5 Z"/></g>
<g><path style="opacity:1" fill="#f9faf9" d="M 270.5,79.5 C 271.833,80.1667 271.833,80.1667 270.5,79.5 Z"/></g>
<g><path style="opacity:1" fill="#f9faf9" d="M 94.5,81.5 C 95.8333,82.1667 95.8333,82.1667 94.5,81.5 Z"/></g>
<g><path style="opacity:1" fill="#1d1e1d" d="M 269.5,117.5 C 269.649,118.552 269.483,119.552 269,120.5C 268.481,119.484 267.647,118.818 266.5,118.5C 263.03,119.646 260.863,121.979 260,125.5C 258.989,124.663 257.822,124.33 256.5,124.5C 256.401,127.237 256.735,129.904 257.5,132.5C 257.5,138.833 257.5,145.167 257.5,151.5C 256.883,151.611 256.383,151.944 256,152.5C 252.943,149.722 249.443,149.056 245.5,150.5C 244.614,151.325 244.281,152.325 244.5,153.5C 243.883,153.611 243.383,153.944 243,154.5C 242.768,153.263 242.268,152.263 241.5,151.5C 241.831,144.137 241.497,136.803 240.5,129.5C 239.914,129.291 239.414,128.957 239,128.5C 237.968,130.027 236.801,131.36 235.5,132.5C 231.791,130.483 227.791,129.483 223.5,129.5C 223.55,131.59 222.55,132.923 220.5,133.5C 219.304,133.154 219.304,132.654 220.5,132C 219.263,131.768 218.263,131.268 217.5,130.5C 217.369,129.761 217.536,129.094 218,128.5C 227.947,118.764 237.781,108.93 247.5,99C 248.833,98.3333 250.167,98.3333 251.5,99C 257.401,105.338 263.401,111.505 269.5,117.5 Z"/></g>
<g><path style="opacity:1" fill="#f9faf9" d="M 365.5,106.5 C 366.833,107.167 366.833,107.167 365.5,106.5 Z"/></g>
<g><path style="opacity:1" fill="#f9faf9" d="M 12.5,108.5 C 13.8333,109.167 13.8333,109.167 12.5,108.5 Z"/></g>
<g><path style="opacity:1" fill="#f9faf9" d="M 272.5,109.5 C 273.833,110.167 273.833,110.167 272.5,109.5 Z"/></g>
<g><path style="opacity:1" fill="#f9faf9" d="M 202.5,110.5 C 203.833,111.167 203.833,111.167 202.5,110.5 Z"/></g>
<g><path style="opacity:1" fill="#f9faf9" d="M 461.5,112.5 C 462.833,113.167 462.833,113.167 461.5,112.5 Z"/></g>
<g><path style="opacity:1" fill="#f9faf9" d="M 439.5,113.5 C 440.833,114.167 440.833,114.167 439.5,113.5 Z"/></g>
<g><path style="opacity:1" fill="#20201f" d="M 269.5,117.5 C 288.021,135.187 306.021,153.354 323.5,172C 316.202,171.817 308.869,171.484 301.5,171C 287.776,156.94 273.943,142.774 260,128.5C 259.066,129.858 258.232,131.192 257.5,132.5C 256.735,129.904 256.401,127.237 256.5,124.5C 257.822,124.33 258.989,124.663 260,125.5C 260.863,121.979 263.03,119.646 266.5,118.5C 267.647,118.818 268.481,119.484 269,120.5C 269.483,119.552 269.649,118.552 269.5,117.5 Z"/></g>
<g><path style="opacity:1" fill="#f9faf9" d="M 29.5,119.5 C 30.8333,120.167 30.8333,120.167 29.5,119.5 Z"/></g>
<g><path style="opacity:1" fill="#f9faf9" d="M 308.5,123.5 C 309.833,124.167 309.833,124.167 308.5,123.5 Z"/></g>
<g><path style="opacity:1" fill="#f9faf9" d="M 309.5,129.5 C 310.833,130.167 310.833,130.167 309.5,129.5 Z"/></g>
<g><path style="opacity:1" fill="#f9faf9" d="M 16.5,131.5 C 17.8333,132.167 17.8333,132.167 16.5,131.5 Z"/></g>
<g><path style="opacity:1" fill="#212121" d="M 235.5,132.5 C 223.107,145.56 210.44,158.227 197.5,170.5C 196.009,171.244 194.509,171.91 193,172.5C 187.884,171.236 182.717,171.236 177.5,172.5C 176.833,172.333 176.167,172.167 175.5,172C 188.728,157.368 202.728,143.534 217.5,130.5C 218.263,131.268 219.263,131.768 220.5,132C 219.304,132.654 219.304,133.154 220.5,133.5C 222.55,132.923 223.55,131.59 223.5,129.5C 227.791,129.483 231.791,130.483 235.5,132.5 Z"/></g>
<g><path style="opacity:1" fill="#f9faf9" d="M 25.5,134.5 C 26.8333,135.167 26.8333,135.167 25.5,134.5 Z"/></g>
<g><path style="opacity:1" fill="#f9faf9" d="M 349.5,134.5 C 350.833,135.167 350.833,135.167 349.5,134.5 Z"/></g>
<g><path style="opacity:1" fill="#f9faf9" d="M 444.5,135.5 C 445.833,136.167 445.833,136.167 444.5,135.5 Z"/></g>
<g><path style="opacity:1" fill="#f9faf9" d="M 448.5,135.5 C 449.833,136.167 449.833,136.167 448.5,135.5 Z"/></g>
<g><path style="opacity:1" fill="#f9faf9" d="M 392.5,136.5 C 393.833,137.167 393.833,137.167 392.5,136.5 Z"/></g>
<g><path style="opacity:1" fill="#f9faf9" d="M 449.5,147.5 C 450.833,148.167 450.833,148.167 449.5,147.5 Z"/></g>
<g><path style="opacity:1" fill="#f9faf9" d="M 454.5,153.5 C 455.833,154.167 455.833,154.167 454.5,153.5 Z"/></g>
<g><path style="opacity:1" fill="#1f4b35" d="M 241.5,151.5 C 242.268,152.263 242.768,153.263 243,154.5C 243.383,153.944 243.883,153.611 244.5,153.5C 248.042,154.865 248.209,156.532 245,158.5C 244.202,160.259 244.369,161.926 245.5,163.5C 247.446,161.913 248.946,162.246 250,164.5C 250.333,163.833 250.667,163.167 251,162.5C 251.21,164.058 251.71,165.391 252.5,166.5C 252.5,167.167 252.833,167.5 253.5,167.5C 253.389,168.117 253.056,168.617 252.5,169C 253.552,170.119 254.719,170.619 256,170.5C 258.232,169.157 260.066,167.49 261.5,165.5C 261.343,166.873 261.51,168.207 262,169.5C 265.934,174.366 269.1,179.699 271.5,185.5C 271.5,186.5 271.5,187.5 271.5,188.5C 269.833,188.5 268.167,188.5 266.5,188.5C 263.52,184.552 261.02,180.219 259,175.5C 257.622,173.787 255.955,172.453 254,171.5C 252.312,182.296 252.145,192.963 253.5,203.5C 253.082,204.222 252.416,204.722 251.5,205C 252.188,207.218 251.188,208.718 248.5,209.5C 247.571,208.311 247.238,206.978 247.5,205.5C 248.006,201.993 247.34,198.826 245.5,196C 246.167,194.667 246.833,193.333 247.5,192C 247.579,184.305 246.912,176.471 245.5,168.5C 243.613,171.577 241.446,174.577 239,177.5C 238.559,180.939 236.892,183.606 234,185.5C 232.991,187.025 232.491,188.692 232.5,190.5C 229.237,190.326 227.57,188.659 227.5,185.5C 229.467,182.784 230.967,179.784 232,176.5C 235.484,174.153 237.317,171.153 237.5,167.5C 236.667,167.167 235.833,166.833 235,166.5C 226.403,170.415 217.903,174.415 209.5,178.5C 204.895,180.123 200.229,179.79 195.5,177.5C 206.434,172.704 217.434,167.871 228.5,163C 231.704,159.483 235.704,157.483 240.5,157C 241.406,155.301 241.739,153.467 241.5,151.5 Z M 245.5,168.5 C 245.461,167.244 245.961,166.244 247,165.5C 247.667,167.167 247.667,168.833 247,170.5C 246.722,169.584 246.222,168.918 245.5,168.5 Z"/></g>
<g><path style="opacity:1" fill="#1f4d35" d="M 257.5,151.5 C 257.261,153.467 257.594,155.301 258.5,157C 273.942,163.554 289.276,170.387 304.5,177.5C 304.389,178.117 304.056,178.617 303.5,179C 298.298,179.359 293.298,179.526 288.5,179.5C 288.489,177.983 287.823,176.816 286.5,176C 277.607,172.86 269.274,169.36 261.5,165.5C 260.066,167.49 258.232,169.157 256,170.5C 254.719,170.619 253.552,170.119 252.5,169C 253.056,168.617 253.389,168.117 253.5,167.5C 252.833,167.5 252.5,167.167 252.5,166.5C 251.71,165.391 251.21,164.058 251,162.5C 250.667,163.167 250.333,163.833 250,164.5C 248.946,162.246 247.446,161.913 245.5,163.5C 244.369,161.926 244.202,160.259 245,158.5C 248.209,156.532 248.042,154.865 244.5,153.5C 244.281,152.325 244.614,151.325 245.5,150.5C 249.443,149.056 252.943,149.722 256,152.5C 256.383,151.944 256.883,151.611 257.5,151.5 Z"/></g>
<g><path style="opacity:1" fill="#f9faf9" d="M 418.5,159.5 C 419.833,160.167 419.833,160.167 418.5,159.5 Z"/></g>
<g><path style="opacity:1" fill="#f9faf9" d="M 491.5,161.5 C 492.833,162.167 492.833,162.167 491.5,161.5 Z"/></g>
<g><path style="opacity:1" fill="#f9faf9" d="M 436.5,165.5 C 437.833,166.167 437.833,166.167 436.5,165.5 Z"/></g>
<g><path style="opacity:1" fill="#f9faf9" d="M 417.5,169.5 C 418.833,170.167 418.833,170.167 417.5,169.5 Z"/></g>
<g><path style="opacity:1" fill="#99212a" d="M 199.5,180.5 C 203.108,181.937 206.775,183.437 210.5,185C 212.112,185.72 213.612,185.554 215,184.5C 216.996,186.827 219.496,188.327 222.5,189C 220.176,190.162 217.842,191.329 215.5,192.5C 216.506,193.396 216.506,194.062 215.5,194.5C 213.253,193.626 210.92,193.292 208.5,193.5C 208.389,192.883 208.056,192.383 207.5,192C 201.7,191.116 195.867,190.616 190,190.5C 186.424,190.515 183.258,191.182 180.5,192.5C 179.833,192.5 179.5,192.833 179.5,193.5C 171.867,193.742 165.2,196.409 159.5,201.5C 158.295,202.577 157.628,203.91 157.5,205.5C 154.471,208.859 151.471,212.192 148.5,215.5C 147.425,214.438 146.425,214.438 145.5,215.5C 144.806,218.088 143.64,220.421 142,222.5C 141.667,221.833 141.333,221.167 141,220.5C 138.809,226.654 139.309,232.487 142.5,238C 140.521,236.699 138.188,235.866 135.5,235.5C 132.785,233.098 130.285,230.432 128,227.5C 127.29,228.973 126.124,229.64 124.5,229.5C 129.879,215.914 137.879,204.081 148.5,194C 149.094,193.536 149.761,193.369 150.5,193.5C 155.308,190.723 160.308,188.223 165.5,186C 166.71,184.961 167.71,183.794 168.5,182.5C 178.771,180.985 189.104,180.318 199.5,180.5 Z"/></g>
<g><path style="opacity:1" fill="#823236" d="M 195.5,177.5 C 200.229,179.79 204.895,180.123 209.5,178.5C 215.004,181.912 221.004,184.245 227.5,185.5C 227.57,188.659 229.237,190.326 232.5,190.5C 232.5,190.833 232.5,191.167 232.5,191.5C 228.279,189.31 223.945,187.144 219.5,185C 212.926,182.931 206.26,181.431 199.5,180.5C 189.104,180.318 178.771,180.985 168.5,182.5C 177.097,179.343 186.097,177.677 195.5,177.5 Z"/></g>
<g><path style="opacity:1" fill="#93252c" d="M 304.5,177.5 C 315.486,177.535 325.82,179.869 335.5,184.5C 326.146,183.276 316.812,181.943 307.5,180.5C 305.176,181.182 302.843,181.849 300.5,182.5C 300.5,183.5 300.5,184.5 300.5,185.5C 305.421,185.135 305.755,186.135 301.5,188.5C 301.833,188.833 302.167,189.167 302.5,189.5C 306.489,188.893 310.489,188.227 314.5,187.5C 314.709,186.914 315.043,186.414 315.5,186C 319.533,184.96 323.199,185.626 326.5,188C 325.101,188.595 323.768,188.428 322.5,187.5C 321.5,188 320.5,188.5 319.5,189C 322.976,190.585 326.642,192.585 330.5,195C 332.439,195.908 333.439,197.408 333.5,199.5C 330.167,198.167 326.833,196.833 323.5,195.5C 319.479,192.593 315.146,191.926 310.5,193.5C 301.441,192.009 292.774,193.343 284.5,197.5C 281.281,198.069 278.948,199.736 277.5,202.5C 276.833,202.5 276.167,202.5 275.5,202.5C 274.508,202.672 273.842,202.338 273.5,201.5C 274.341,199.488 275.841,198.155 278,197.5C 278.667,196.5 278.667,195.5 278,194.5C 275.341,195.935 272.508,196.935 269.5,197.5C 268.833,196.833 268.167,196.167 267.5,195.5C 266.583,196.127 265.583,196.461 264.5,196.5C 266.113,193.26 268.78,191.76 272.5,192C 274.808,189.872 276.474,187.372 277.5,184.5C 281.083,182.64 284.749,180.973 288.5,179.5C 293.298,179.526 298.298,179.359 303.5,179C 304.056,178.617 304.389,178.117 304.5,177.5 Z"/></g>
<g><path style="opacity:1" fill="#f9faf9" d="M 465.5,183.5 C 466.833,184.167 466.833,184.167 465.5,183.5 Z"/></g>
<g><path style="opacity:1" fill="#f9faf9" d="M 430.5,186.5 C 431.833,187.167 431.833,187.167 430.5,186.5 Z"/></g>
<g><path style="opacity:1" fill="#f9faf9" d="M 387.5,187.5 C 388.833,188.167 388.833,188.167 387.5,187.5 Z"/></g>
<g><path style="opacity:1" fill="#f9faf9" d="M 121.5,189.5 C 122.833,190.167 122.833,190.167 121.5,189.5 Z"/></g>
<g><path style="opacity:1" fill="#954e50" d="M 168.5,182.5 C 167.71,183.794 166.71,184.961 165.5,186C 160.308,188.223 155.308,190.723 150.5,193.5C 155.44,188.253 161.44,184.586 168.5,182.5 Z"/></g>
<g><path style="opacity:1" fill="#93252e" d="M 199.5,180.5 C 206.26,181.431 212.926,182.931 219.5,185C 223.945,187.144 228.279,189.31 232.5,191.5C 235.784,193.117 238.451,195.45 240.5,198.5C 240.833,199.833 241.167,201.167 241.5,202.5C 239.568,200.477 237.568,199.144 235.5,198.5C 233.902,199.485 232.235,199.651 230.5,199C 230.957,198.586 231.291,198.086 231.5,197.5C 229.42,195.26 227.087,194.593 224.5,195.5C 222.864,194.696 221.364,193.696 220,192.5C 219.833,193 219.667,193.5 219.5,194C 222.854,196.975 225.688,200.475 228,204.5C 229.961,207.135 232.461,208.969 235.5,210C 237.487,211.319 238.654,213.152 239,215.5C 240.666,214.66 240.833,215.16 239.5,217C 243.417,219.326 245.417,222.826 245.5,227.5C 245.376,228.107 245.043,228.44 244.5,228.5C 244.21,225.873 242.876,224.206 240.5,223.5C 236.144,215.638 230.477,208.805 223.5,203C 222.207,202.51 220.873,202.343 219.5,202.5C 219.833,199.5 218.5,198.167 215.5,198.5C 213.574,196.707 211.241,195.707 208.5,195.5C 208.5,194.833 208.5,194.167 208.5,193.5C 210.92,193.292 213.253,193.626 215.5,194.5C 216.506,194.062 216.506,193.396 215.5,192.5C 217.842,191.329 220.176,190.162 222.5,189C 219.496,188.327 216.996,186.827 215,184.5C 213.612,185.554 212.112,185.72 210.5,185C 206.775,183.437 203.108,181.937 199.5,180.5 Z"/></g>
<g><path style="opacity:1" fill="#99202a" d="M 335.5,184.5 C 337.986,187.818 340.986,190.651 344.5,193C 343.5,193.333 342.5,193.667 341.5,194C 343.42,195.122 345.42,195.956 347.5,196.5C 347.48,198.143 348.147,199.476 349.5,200.5C 349.376,201.107 349.043,201.44 348.5,201.5C 347.504,201.414 346.671,201.748 346,202.5C 344.951,200.893 343.451,200.227 341.5,200.5C 341.5,201.5 341.5,202.5 341.5,203.5C 342.833,203.5 344.167,203.5 345.5,203.5C 345.351,204.552 345.517,205.552 346,206.5C 348.685,209.198 351.018,212.198 353,215.5C 354.093,213.651 355.426,211.984 357,210.5C 355.909,213.328 355.575,216.328 356,219.5C 356.333,220.167 356.667,220.833 357,221.5C 358,220.167 359,220.167 360,221.5C 360.494,223.134 360.66,224.801 360.5,226.5C 358.833,226.5 357.167,226.5 355.5,226.5C 355.833,229.5 354.5,230.833 351.5,230.5C 352.11,229.609 352.443,228.609 352.5,227.5C 352.953,226.542 353.619,225.708 354.5,225C 353.751,223.266 353.251,221.433 353,219.5C 347.639,211.64 341.139,204.973 333.5,199.5C 333.439,197.408 332.439,195.908 330.5,195C 326.642,192.585 322.976,190.585 319.5,189C 320.5,188.5 321.5,188 322.5,187.5C 323.768,188.428 325.101,188.595 326.5,188C 323.199,185.626 319.533,184.96 315.5,186C 315.043,186.414 314.709,186.914 314.5,187.5C 310.489,188.227 306.489,188.893 302.5,189.5C 302.167,189.167 301.833,188.833 301.5,188.5C 305.755,186.135 305.421,185.135 300.5,185.5C 300.5,184.5 300.5,183.5 300.5,182.5C 302.843,181.849 305.176,181.182 307.5,180.5C 316.812,181.943 326.146,183.276 335.5,184.5 Z"/></g>
<g><path style="opacity:1" fill="#8e4144" d="M 208.5,193.5 C 208.5,194.167 208.5,194.833 208.5,195.5C 202.046,192.61 195.379,191.944 188.5,193.5C 185.946,192.612 183.279,192.279 180.5,192.5C 183.258,191.182 186.424,190.515 190,190.5C 195.867,190.616 201.7,191.116 207.5,192C 208.056,192.383 208.389,192.883 208.5,193.5 Z"/></g>
<g><path style="opacity:1" fill="#f9faf9" d="M 477.5,194.5 C 478.833,195.167 478.833,195.167 477.5,194.5 Z"/></g>
<g><path style="opacity:1" fill="#204833" d="M 180.5,192.5 C 183.279,192.279 185.946,192.612 188.5,193.5C 189.785,198.803 191.785,204.136 194.5,209.5C 193.603,208.402 192.77,208.402 192,209.5C 191.667,208.5 191.333,207.5 191,206.5C 190.153,208.193 189.32,209.86 188.5,211.5C 187.87,207.897 186.37,204.564 184,201.5C 183.29,202.973 182.124,203.64 180.5,203.5C 180.169,211.492 177.836,218.826 173.5,225.5C 172.777,227.782 172.443,230.116 172.5,232.5C 173.5,232.5 174.5,232.5 175.5,232.5C 174.198,233.926 172.698,235.259 171,236.5C 168.546,234.987 166.879,235.654 166,238.5C 164.961,237.756 164.461,236.756 164.5,235.5C 164.421,232.729 164.921,230.063 166,227.5C 168.442,224.178 169.609,220.678 169.5,217C 173.328,210.683 175.661,203.849 176.5,196.5C 176.393,194.621 176.893,194.288 178,195.5C 178.717,194.956 179.217,194.289 179.5,193.5C 179.5,192.833 179.833,192.5 180.5,192.5 Z"/></g>
<g><path style="opacity:1" fill="#893a3b" d="M 179.5,193.5 C 179.217,194.289 178.717,194.956 178,195.5C 176.893,194.288 176.393,194.621 176.5,196.5C 175.85,196.196 175.183,195.863 174.5,195.5C 168.312,198.089 162.645,201.422 157.5,205.5C 157.628,203.91 158.295,202.577 159.5,201.5C 165.2,196.409 171.867,193.742 179.5,193.5 Z"/></g>
<g><path style="opacity:1" fill="#9c1e28" d="M 348.5,201.5 C 348.783,202.289 349.283,202.956 350,203.5C 350.419,202.328 351.085,201.328 352,200.5C 356.813,204.307 360.479,208.974 363,214.5C 366.545,217.24 368.711,220.906 369.5,225.5C 368.453,227.056 367.786,228.723 367.5,230.5C 365.692,230.491 364.025,230.991 362.5,232C 360.658,234.543 358.491,236.71 356,238.5C 355.546,241.612 353.713,243.278 350.5,243.5C 349.859,239.629 348.359,238.962 346,241.5C 344.933,240.809 343.766,240.309 342.5,240C 344.101,239.727 345.601,239.227 347,238.5C 347.959,235.412 349.459,232.745 351.5,230.5C 354.5,230.833 355.833,229.5 355.5,226.5C 357.167,226.5 358.833,226.5 360.5,226.5C 360.66,224.801 360.494,223.134 360,221.5C 359,220.167 358,220.167 357,221.5C 356.667,220.833 356.333,220.167 356,219.5C 355.575,216.328 355.909,213.328 357,210.5C 355.426,211.984 354.093,213.651 353,215.5C 351.018,212.198 348.685,209.198 346,206.5C 345.517,205.552 345.351,204.552 345.5,203.5C 344.167,203.5 342.833,203.5 341.5,203.5C 341.5,202.5 341.5,201.5 341.5,200.5C 343.451,200.227 344.951,200.893 346,202.5C 346.671,201.748 347.504,201.414 348.5,201.5 Z"/></g>
<g><path style="opacity:1" fill="#f9faf9" d="M 408.5,206.5 C 409.833,207.167 409.833,207.167 408.5,206.5 Z"/></g>
<g><path style="opacity:1" fill="#7c3436" d="M 277.5,184.5 C 276.474,187.372 274.808,189.872 272.5,192C 268.78,191.76 266.113,193.26 264.5,196.5C 261.545,199.116 258.545,201.782 255.5,204.5C 253.963,207.602 251.963,210.268 249.5,212.5C 248.558,212.392 247.725,212.059 247,211.5C 246.157,207.8 244.324,204.8 241.5,202.5C 241.167,201.167 240.833,199.833 240.5,198.5C 242.605,201.027 244.939,203.36 247.5,205.5C 247.238,206.978 247.571,208.311 248.5,209.5C 251.188,208.718 252.188,207.218 251.5,205C 252.416,204.722 253.082,204.222 253.5,203.5C 257.138,199.03 261.305,195.03 266,191.5C 266.483,190.552 266.649,189.552 266.5,188.5C 268.167,188.5 269.833,188.5 271.5,188.5C 271.5,187.5 271.5,186.5 271.5,185.5C 273.621,185.675 275.621,185.341 277.5,184.5 Z"/></g>
<g><path style="opacity:1" fill="#9a1e28" d="M 241.5,202.5 C 244.324,204.8 246.157,207.8 247,211.5C 247.725,212.059 248.558,212.392 249.5,212.5C 251.963,210.268 253.963,207.602 255.5,204.5C 258.545,201.782 261.545,199.116 264.5,196.5C 265.583,196.461 266.583,196.127 267.5,195.5C 268.167,196.167 268.833,196.833 269.5,197.5C 272.508,196.935 275.341,195.935 278,194.5C 278.667,195.5 278.667,196.5 278,197.5C 275.841,198.155 274.341,199.488 273.5,201.5C 272.167,201.5 270.833,201.5 269.5,201.5C 269.803,204.588 268.47,206.254 265.5,206.5C 265.657,207.873 265.49,209.207 265,210.5C 260.567,216.78 256.734,223.446 253.5,230.5C 249.327,236.043 246.327,235.377 244.5,228.5C 245.043,228.44 245.376,228.107 245.5,227.5C 245.417,222.826 243.417,219.326 239.5,217C 240.833,215.16 240.666,214.66 239,215.5C 238.654,213.152 237.487,211.319 235.5,210C 232.461,208.969 229.961,207.135 228,204.5C 225.688,200.475 222.854,196.975 219.5,194C 219.667,193.5 219.833,193 220,192.5C 221.364,193.696 222.864,194.696 224.5,195.5C 227.087,194.593 229.42,195.26 231.5,197.5C 231.291,198.086 230.957,198.586 230.5,199C 232.235,199.651 233.902,199.485 235.5,198.5C 237.568,199.144 239.568,200.477 241.5,202.5 Z"/></g>
<g><path style="opacity:1" fill="#224d36" d="M 215.5,198.5 C 218.5,198.167 219.833,199.5 219.5,202.5C 215.257,206.114 211.257,209.947 207.5,214C 204.553,214.112 203.22,215.612 203.5,218.5C 201.907,219.348 200.74,220.681 200,222.5C 199.667,220.833 199.333,219.167 199,217.5C 196.934,220.298 195.434,219.965 194.5,216.5C 193.635,215.417 192.635,215.251 191.5,216C 187.845,219.212 187.511,222.712 190.5,226.5C 189.971,228.583 188.971,230.417 187.5,232C 182.841,233.642 179.508,236.642 177.5,241C 173.292,242.348 170.959,244.848 170.5,248.5C 182.649,252.607 194.315,257.107 205.5,262C 210.038,262.104 214.038,263.604 217.5,266.5C 218.562,265.575 218.562,264.575 217.5,263.5C 219.103,263.312 220.437,263.812 221.5,265C 220.167,266.333 220.167,267.667 221.5,269C 219.978,270.916 218.978,273.083 218.5,275.5C 217.942,273.407 216.609,271.907 214.5,271C 211.233,270.547 208.066,269.713 205,268.5C 198.331,266.055 191.831,263.222 185.5,260C 182.568,259.047 179.568,258.547 176.5,258.5C 171.246,254.687 166.413,250.354 162,245.5C 161.187,243.564 160.687,241.564 160.5,239.5C 161.552,239.649 162.552,239.483 163.5,239C 162.713,237.687 163.046,236.52 164.5,235.5C 164.461,236.756 164.961,237.756 166,238.5C 166.879,235.654 168.546,234.987 171,236.5C 172.698,235.259 174.198,233.926 175.5,232.5C 178.685,228.514 182.519,225.181 187,222.5C 187.32,218.786 187.82,215.119 188.5,211.5C 189.32,209.86 190.153,208.193 191,206.5C 191.333,207.5 191.667,208.5 192,209.5C 192.77,208.402 193.603,208.402 194.5,209.5C 197.643,213.561 200.31,213.061 202.5,208C 206.992,205.002 211.325,201.835 215.5,198.5 Z"/></g>
<g><path style="opacity:1" fill="#8e3c41" d="M 273.5,201.5 C 273.842,202.338 274.508,202.672 275.5,202.5C 271.894,205.942 268.394,209.608 265,213.5C 260.553,220.733 256.386,228.067 252.5,235.5C 250.958,236.301 249.292,236.634 247.5,236.5C 244.407,232.653 242.074,228.32 240.5,223.5C 242.876,224.206 244.21,225.873 244.5,228.5C 246.327,235.377 249.327,236.043 253.5,230.5C 256.734,223.446 260.567,216.78 265,210.5C 265.49,209.207 265.657,207.873 265.5,206.5C 268.47,206.254 269.803,204.588 269.5,201.5C 270.833,201.5 272.167,201.5 273.5,201.5 Z"/></g>
<g><path style="opacity:1" fill="#1e4e36" d="M 203.5,218.5 C 203.238,219.978 203.571,221.311 204.5,222.5C 209.345,223.75 213.345,226.25 216.5,230C 224.751,235.042 232.918,240.208 241,245.5C 241.986,244.829 243.153,244.829 244.5,245.5C 244.294,247.549 243.461,247.883 242,246.5C 241.383,247.449 241.549,248.282 242.5,249C 240.942,249.21 239.609,249.71 238.5,250.5C 230.387,245.604 222.387,240.437 214.5,235C 212.323,233.798 209.989,233.298 207.5,233.5C 207.961,237.606 209.794,240.939 213,243.5C 214.097,247.052 215.597,250.385 217.5,253.5C 216.603,254.598 215.77,254.598 215,253.5C 213.961,254.244 213.461,255.244 213.5,256.5C 208.896,252.053 205.729,246.72 204,240.5C 200.067,236.971 197.4,232.637 196,227.5C 193.924,228.757 192.09,228.424 190.5,226.5C 187.511,222.712 187.845,219.212 191.5,216C 192.635,215.251 193.635,215.417 194.5,216.5C 195.434,219.965 196.934,220.298 199,217.5C 199.333,219.167 199.667,220.833 200,222.5C 200.74,220.681 201.907,219.348 203.5,218.5 Z"/></g>
<g><path style="opacity:1" fill="#1f4d36" d="M 323.5,195.5 C 322.489,197.402 322.322,199.402 323,201.5C 327.479,212.768 331.645,224.101 335.5,235.5C 334.15,236.483 333.15,237.816 332.5,239.5C 331.391,238.41 330.391,238.41 329.5,239.5C 330.592,240.831 331.926,241.664 333.5,242C 330.751,241.761 328.085,241.928 325.5,242.5C 321.688,238.539 317.355,235.039 312.5,232C 312.943,230.482 312.276,229.315 310.5,228.5C 308.149,228.02 305.815,227.686 303.5,227.5C 298.532,236.297 293.366,244.964 288,253.5C 286.201,257.07 284.701,260.737 283.5,264.5C 281.821,264.285 280.821,264.952 280.5,266.5C 279.167,266.833 279.167,267.167 280.5,267.5C 280.783,268.289 281.283,268.956 282,269.5C 283.956,269.216 286.123,269.216 288.5,269.5C 285.281,269.942 282.947,271.608 281.5,274.5C 280.353,270.609 279.353,270.776 278.5,275C 276.833,275.333 275.167,275.667 273.5,276C 274.833,277 274.833,278 273.5,279C 272.216,279.684 271.049,279.517 270,278.5C 269.692,279.308 269.192,279.975 268.5,280.5C 268.085,277.08 267.585,273.413 267,269.5C 266.814,272.036 266.314,274.369 265.5,276.5C 265.663,274.143 265.497,271.81 265,269.5C 260.749,267.575 257.083,264.908 254,261.5C 253.617,262.056 253.117,262.389 252.5,262.5C 252.196,261.85 251.863,261.183 251.5,260.5C 253.766,259.686 256.1,259.186 258.5,259C 256.722,256.865 256.055,254.365 256.5,251.5C 257.5,251.5 258.5,251.5 259.5,251.5C 257.375,256.564 259.042,259.73 264.5,261C 265.743,262.154 266.743,263.488 267.5,265C 270.187,265.051 272.854,264.551 275.5,263.5C 277.549,258.41 280.382,253.744 284,249.5C 284.475,245.211 286.475,241.878 290,239.5C 290.977,237.26 291.477,234.927 291.5,232.5C 287.617,232.882 284.617,234.716 282.5,238C 275.068,241.918 267.735,246.085 260.5,250.5C 260.033,247.703 258.367,246.369 255.5,246.5C 268.736,238.204 282.07,229.871 295.5,221.5C 296.485,219.902 296.651,218.235 296,216.5C 290.859,212.029 285.692,207.529 280.5,203C 279.552,202.517 278.552,202.351 277.5,202.5C 278.948,199.736 281.281,198.069 284.5,197.5C 284.859,199.371 285.859,200.871 287.5,202C 292.333,205.341 297,208.841 301.5,212.5C 302.442,212.392 303.275,212.059 304,211.5C 304.29,209.956 304.956,208.623 306,207.5C 306.777,202.744 308.277,198.078 310.5,193.5C 315.146,191.926 319.479,192.593 323.5,195.5 Z M 314.5,201.5 C 316.456,202.122 317.789,203.455 318.5,205.5C 320.056,214.348 323.056,222.515 327.5,230C 326.289,231.113 326.289,232.28 327.5,233.5C 327,233.833 326.5,234.167 326,234.5C 322.285,231.923 319.118,228.756 316.5,225C 315.234,224.691 314.067,224.191 313,223.5C 312.682,219.805 312.182,216.138 311.5,212.5C 312.125,208.698 313.125,205.032 314.5,201.5 Z"/></g>
<g><path style="opacity:1" fill="#f9faf9" d="M 459.5,232.5 C 460.833,233.167 460.833,233.167 459.5,232.5 Z"/></g>
<g><path style="opacity:1" fill="#20201e" d="M 135.5,235.5 C 136.942,236.82 137.608,238.486 137.5,240.5C 133.89,259.356 136.723,277.022 146,293.5C 148.668,297.334 151.835,300.667 155.5,303.5C 155.607,305.379 155.107,305.712 154,304.5C 153.333,305.167 152.667,305.833 152,306.5C 152.148,307.825 151.982,308.992 151.5,310C 149.608,310.973 147.608,311.64 145.5,312C 146.598,312.77 146.598,313.603 145.5,314.5C 131.651,302.734 123.984,287.9 122.5,270C 121.508,265.554 120.841,261.054 120.5,256.5C 121.783,247.183 123.116,238.183 124.5,229.5C 126.124,229.64 127.29,228.973 128,227.5C 130.285,230.432 132.785,233.098 135.5,235.5 Z"/></g>
<g><path style="opacity:1" fill="#1d1c1b" d="M 372.5,227.5 C 373.558,228.6 374.392,229.934 375,231.5C 378.599,244.762 379.099,258.096 376.5,271.5C 375.358,273.374 374.025,275.207 372.5,277C 371.101,277.595 369.768,277.428 368.5,276.5C 367.692,276.808 367.025,277.308 366.5,278C 366.665,279.837 367.332,281.837 368.5,284C 367.167,284.667 366.167,285.667 365.5,287C 364.833,287.667 364.167,287.667 363.5,287C 364.641,286.259 364.641,285.425 363.5,284.5C 364.025,283.808 364.692,283.308 365.5,283C 363.39,283.347 361.39,283.18 359.5,282.5C 359.584,278.163 360.584,274.163 362.5,270.5C 363.813,262.599 363.813,254.599 362.5,246.5C 362.167,244.5 361.833,242.5 361.5,240.5C 361.383,238.516 362.05,236.85 363.5,235.5C 366.943,233.217 369.943,230.55 372.5,227.5 Z"/></g>
<g><path style="opacity:1" fill="#913136" d="M 335.5,184.5 C 353.899,193.569 366.233,207.903 372.5,227.5C 369.943,230.55 366.943,233.217 363.5,235.5C 362.05,236.85 361.383,238.516 361.5,240.5C 351.827,249.506 342.494,258.839 333.5,268.5C 333.693,265.692 334.36,263.025 335.5,260.5C 337.124,260.64 338.29,259.973 339,258.5C 339.333,258.833 339.667,259.167 340,259.5C 340.49,258.207 340.657,256.873 340.5,255.5C 341.833,255.5 343.167,255.5 344.5,255.5C 344.421,254.07 344.754,252.736 345.5,251.5C 347.194,249.806 348.86,248.14 350.5,246.5C 349.675,245.614 348.675,245.281 347.5,245.5C 347.5,244.5 347.5,243.5 347.5,242.5C 345.058,242.119 344.391,242.786 345.5,244.5C 344.271,245.281 342.938,245.781 341.5,246C 340.167,246.667 340.167,247.333 341.5,248C 340.09,248.368 339.09,249.201 338.5,250.5C 335.94,251.747 333.273,252.747 330.5,253.5C 327.11,256.895 323.444,259.895 319.5,262.5C 320.167,261.5 320.833,260.5 321.5,259.5C 328.14,253.857 334.14,247.524 339.5,240.5C 344.061,236.36 348.395,232.027 352.5,227.5C 352.443,228.609 352.11,229.609 351.5,230.5C 349.459,232.745 347.959,235.412 347,238.5C 345.601,239.227 344.101,239.727 342.5,240C 343.766,240.309 344.933,240.809 346,241.5C 348.359,238.962 349.859,239.629 350.5,243.5C 353.713,243.278 355.546,241.612 356,238.5C 358.491,236.71 360.658,234.543 362.5,232C 364.025,230.991 365.692,230.491 367.5,230.5C 367.786,228.723 368.453,227.056 369.5,225.5C 368.711,220.906 366.545,217.24 363,214.5C 360.479,208.974 356.813,204.307 352,200.5C 351.085,201.328 350.419,202.328 350,203.5C 349.283,202.956 348.783,202.289 348.5,201.5C 349.043,201.44 349.376,201.107 349.5,200.5C 348.147,199.476 347.48,198.143 347.5,196.5C 345.42,195.956 343.42,195.122 341.5,194C 342.5,193.667 343.5,193.333 344.5,193C 340.986,190.651 337.986,187.818 335.5,184.5 Z"/></g>
<g><path style="opacity:1" fill="#f9faf9" d="M 405.5,243.5 C 406.833,244.167 406.833,244.167 405.5,243.5 Z"/></g>
<g><path style="opacity:1" fill="#244d37" d="M 335.5,235.5 C 335.369,238.367 336.703,240.033 339.5,240.5C 334.14,247.524 328.14,253.857 321.5,259.5C 321.265,258.903 320.765,258.57 320,258.5C 312.832,259.999 306.165,262.665 300,266.5C 299.667,266.167 299.333,265.833 299,265.5C 295.766,267.577 292.266,268.91 288.5,269.5C 286.123,269.216 283.956,269.216 282,269.5C 281.283,268.956 280.783,268.289 280.5,267.5C 280.5,267.167 280.5,266.833 280.5,266.5C 282.027,266.573 283.027,265.906 283.5,264.5C 298.692,259.901 313.692,254.568 328.5,248.5C 329.583,247.635 329.749,246.635 329,245.5C 327.855,244.364 326.688,243.364 325.5,242.5C 328.085,241.928 330.751,241.761 333.5,242C 331.926,241.664 330.592,240.831 329.5,239.5C 330.391,238.41 331.391,238.41 332.5,239.5C 333.15,237.816 334.15,236.483 335.5,235.5 Z"/></g>
<g><path style="opacity:1" fill="#95242c" d="M 148.5,215.5 C 146.741,218.274 145.074,221.107 143.5,224C 149.033,229.198 154.2,234.698 159,240.5C 159.383,239.944 159.883,239.611 160.5,239.5C 160.687,241.564 161.187,243.564 162,245.5C 166.413,250.354 171.246,254.687 176.5,258.5C 177.5,259.833 178.5,261.167 179.5,262.5C 180.189,265.353 181.522,267.853 183.5,270C 181.932,272.12 182.432,273.62 185,274.5C 185.333,274.167 185.667,273.833 186,273.5C 187.522,275.022 189.022,276.522 190.5,278C 188.983,279.541 187.816,281.375 187,283.5C 186.667,283.167 186.333,282.833 186,282.5C 185.316,283.784 185.483,284.951 186.5,286C 186,286.167 185.5,286.333 185,286.5C 182.942,283.28 180.109,280.947 176.5,279.5C 163.452,266.452 150.452,253.452 137.5,240.5C 137.608,238.486 136.942,236.82 135.5,235.5C 138.188,235.866 140.521,236.699 142.5,238C 139.309,232.487 138.809,226.654 141,220.5C 141.333,221.167 141.667,221.833 142,222.5C 143.64,220.421 144.806,218.088 145.5,215.5C 146.425,214.438 147.425,214.438 148.5,215.5 Z"/></g>
<g><path style="opacity:1" fill="#12452d" d="M 252.5,235.5 C 252.364,238.551 252.698,241.551 253.5,244.5C 253.747,245.713 254.414,246.38 255.5,246.5C 258.367,246.369 260.033,247.703 260.5,250.5C 260.5,251.167 260.167,251.5 259.5,251.5C 258.5,251.5 257.5,251.5 256.5,251.5C 256.055,254.365 256.722,256.865 258.5,259C 256.1,259.186 253.766,259.686 251.5,260.5C 251.863,261.183 252.196,261.85 252.5,262.5C 252.437,269.773 252.771,277.106 253.5,284.5C 252.6,286.239 251.933,288.072 251.5,290C 251.684,291.376 252.351,292.209 253.5,292.5C 253.649,293.552 253.483,294.552 253,295.5C 251.095,296.158 249.595,297.325 248.5,299C 248.728,299.399 249.062,299.565 249.5,299.5C 246.797,300.439 246.13,299.439 247.5,296.5C 246.833,295.833 246.167,295.167 245.5,294.5C 245.624,293.893 245.957,293.56 246.5,293.5C 248.006,290.531 247.673,287.698 245.5,285C 246.126,284.25 246.626,283.416 247,282.5C 247.5,275.508 247.666,268.508 247.5,261.5C 243.646,261.594 240.979,263.428 239.5,267C 237.509,267.374 235.842,268.207 234.5,269.5C 232.824,270.183 232.157,271.517 232.5,273.5C 229.751,273.726 227.084,273.393 224.5,272.5C 223.646,273.522 222.646,274.355 221.5,275C 222.167,275.333 222.833,275.667 223.5,276C 222.695,277.113 222.028,278.279 221.5,279.5C 219.554,278.965 218.554,277.632 218.5,275.5C 218.978,273.083 219.978,270.916 221.5,269C 220.167,267.667 220.167,266.333 221.5,265C 220.437,263.812 219.103,263.312 217.5,263.5C 214.482,262.145 213.149,259.812 213.5,256.5C 213.461,255.244 213.961,254.244 215,253.5C 215.77,254.598 216.603,254.598 217.5,253.5C 220.29,257.236 222.79,261.236 225,265.5C 227.069,264.736 229.236,264.236 231.5,264C 234.296,260.97 237.463,258.47 241,256.5C 241.667,255.5 241.667,254.5 241,253.5C 239.955,252.627 239.122,251.627 238.5,250.5C 239.609,249.71 240.942,249.21 242.5,249C 241.549,248.282 241.383,247.449 242,246.5C 243.461,247.883 244.294,247.549 244.5,245.5C 245.117,245.389 245.617,245.056 246,244.5C 247.176,241.695 247.676,239.028 247.5,236.5C 249.292,236.634 250.958,236.301 252.5,235.5 Z"/></g>
<g><path style="opacity:1" fill="#939291" d="M 362.5,246.5 C 363.813,254.599 363.813,262.599 362.5,270.5C 362.417,262.252 362.417,254.252 362.5,246.5 Z"/></g>
<g><path style="opacity:1" fill="#9a1e29" d="M 333.5,268.5 C 332.167,268.5 330.833,268.5 329.5,268.5C 329.5,269.5 329.5,270.5 329.5,271.5C 325.488,270.887 323.488,272.554 323.5,276.5C 322.127,276.343 320.793,276.51 319.5,277C 320.451,277.718 320.617,278.551 320,279.5C 317.791,282.085 315.124,284.085 312,285.5C 311.692,284.692 311.192,284.025 310.5,283.5C 309.924,287.035 308.591,290.202 306.5,293C 303.338,293.446 300.338,292.946 297.5,291.5C 297.755,288.984 298.589,286.65 300,284.5C 302.861,282.306 305.361,279.806 307.5,277C 309.134,276.506 310.801,276.34 312.5,276.5C 312.5,274.167 312.5,271.833 312.5,269.5C 314.5,266.833 316.833,264.5 319.5,262.5C 323.444,259.895 327.11,256.895 330.5,253.5C 333.273,252.747 335.94,251.747 338.5,250.5C 339.09,249.201 340.09,248.368 341.5,248C 340.167,247.333 340.167,246.667 341.5,246C 342.938,245.781 344.271,245.281 345.5,244.5C 344.391,242.786 345.058,242.119 347.5,242.5C 347.5,243.5 347.5,244.5 347.5,245.5C 348.675,245.281 349.675,245.614 350.5,246.5C 348.86,248.14 347.194,249.806 345.5,251.5C 344.754,252.736 344.421,254.07 344.5,255.5C 343.167,255.5 341.833,255.5 340.5,255.5C 340.657,256.873 340.49,258.207 340,259.5C 339.667,259.167 339.333,258.833 339,258.5C 338.29,259.973 337.124,260.64 335.5,260.5C 334.36,263.025 333.693,265.692 333.5,268.5 Z"/></g>
<g><path style="opacity:1" fill="#1a4d34" d="M 234.5,269.5 C 233.271,272.135 233.271,274.801 234.5,277.5C 236.499,279.493 237.999,281.827 239,284.5C 242.916,286.34 245.416,289.34 246.5,293.5C 245.957,293.56 245.624,293.893 245.5,294.5C 246.167,295.167 246.833,295.833 247.5,296.5C 246.13,299.439 246.797,300.439 249.5,299.5C 251.592,299.439 253.092,298.439 254,296.5C 254.781,297.944 254.614,299.277 253.5,300.5C 251.667,301.052 250,301.885 248.5,303C 249.448,303.483 250.448,303.649 251.5,303.5C 251.198,306.059 251.532,308.393 252.5,310.5C 251.766,311.708 251.433,313.041 251.5,314.5C 250.791,315.404 249.791,315.737 248.5,315.5C 248.784,313.585 248.451,311.919 247.5,310.5C 247.607,308.621 247.107,308.288 246,309.5C 244.782,307.981 243.282,306.814 241.5,306C 241.419,303.24 241.753,300.407 242.5,297.5C 240.878,295.359 238.878,293.692 236.5,292.5C 235.778,292.918 235.278,293.584 235,294.5C 234,291.833 233,291.833 232,294.5C 231.5,293.5 231,292.5 230.5,291.5C 232.184,290.146 232.684,288.479 232,286.5C 231.851,289.279 231.017,289.779 229.5,288C 230.061,286.324 231.061,284.991 232.5,284C 231.216,283.316 230.049,283.483 229,284.5C 227.513,283.747 227.346,282.914 228.5,282C 226.699,281.683 226.366,281.016 227.5,280C 226.207,279.51 224.873,279.343 223.5,279.5C 222.833,279.5 222.167,279.5 221.5,279.5C 222.028,278.279 222.695,277.113 223.5,276C 222.833,275.667 222.167,275.333 221.5,275C 222.646,274.355 223.646,273.522 224.5,272.5C 227.084,273.393 229.751,273.726 232.5,273.5C 232.157,271.517 232.824,270.183 234.5,269.5 Z M 233.5,287.5 C 234.837,288.315 235.837,289.482 236.5,291C 234.066,291.333 233.066,290.166 233.5,287.5 Z"/></g>
<g><path style="opacity:1" fill="#1f4b36" d="M 281.5,274.5 C 280.473,278.377 277.806,280.377 273.5,280.5C 273.663,282.857 273.497,285.19 273,287.5C 272.586,287.957 272.086,288.291 271.5,288.5C 270.253,295.741 267.92,302.575 264.5,309C 265.494,312.519 264.661,315.685 262,318.5C 261.506,320.134 261.34,321.801 261.5,323.5C 260.833,323.5 260.5,323.833 260.5,324.5C 259.686,322.369 259.186,320.036 259,317.5C 257.968,319.027 256.801,320.36 255.5,321.5C 256.376,313.695 258.709,306.362 262.5,299.5C 261.752,297.584 261.752,295.584 262.5,293.5C 260.486,293.392 258.82,294.058 257.5,295.5C 256.167,298.167 256.167,300.833 257.5,303.5C 257.291,304.922 256.791,306.255 256,307.5C 255.333,308.833 254.667,308.833 254,307.5C 252.961,308.244 252.461,309.244 252.5,310.5C 251.532,308.393 251.198,306.059 251.5,303.5C 250.448,303.649 249.448,303.483 248.5,303C 250,301.885 251.667,301.052 253.5,300.5C 254.614,299.277 254.781,297.944 254,296.5C 253.092,298.439 251.592,299.439 249.5,299.5C 249.062,299.565 248.728,299.399 248.5,299C 249.595,297.325 251.095,296.158 253,295.5C 253.483,294.552 253.649,293.552 253.5,292.5C 254.349,288.812 256.516,286.146 260,284.5C 261.386,281.461 263.22,278.794 265.5,276.5C 266.314,274.369 266.814,272.036 267,269.5C 267.585,273.413 268.085,277.08 268.5,280.5C 269.192,279.975 269.692,279.308 270,278.5C 271.049,279.517 272.216,279.684 273.5,279C 274.833,278 274.833,277 273.5,276C 275.167,275.667 276.833,275.333 278.5,275C 279.353,270.776 280.353,270.609 281.5,274.5 Z M 264.5,286.5 C 265.782,287.708 265.782,289.042 264.5,290.5C 263.708,289.3 263.708,287.967 264.5,286.5 Z"/></g>
<g><path style="opacity:1" fill="#953238" d="M 333.5,268.5 C 320.504,282.829 307.171,296.829 293.5,310.5C 293.993,308.194 294.326,305.861 294.5,303.5C 295.93,303.579 297.264,303.246 298.5,302.5C 299.221,300.314 299.887,298.147 300.5,296C 298.729,293.887 297.229,294.053 296,296.5C 295.174,294.595 294.007,294.261 292.5,295.5C 293.167,296.5 293.833,297.5 294.5,298.5C 294.64,300.256 294.14,301.922 293,303.5C 292.506,301.866 292.34,300.199 292.5,298.5C 289.794,298.575 287.127,298.908 284.5,299.5C 293.501,289.167 302.834,279.167 312.5,269.5C 312.5,271.833 312.5,274.167 312.5,276.5C 310.801,276.34 309.134,276.506 307.5,277C 305.361,279.806 302.861,282.306 300,284.5C 298.589,286.65 297.755,288.984 297.5,291.5C 300.338,292.946 303.338,293.446 306.5,293C 308.591,290.202 309.924,287.035 310.5,283.5C 311.192,284.025 311.692,284.692 312,285.5C 315.124,284.085 317.791,282.085 320,279.5C 320.617,278.551 320.451,277.718 319.5,277C 320.793,276.51 322.127,276.343 323.5,276.5C 323.488,272.554 325.488,270.887 329.5,271.5C 329.5,270.5 329.5,269.5 329.5,268.5C 330.833,268.5 332.167,268.5 333.5,268.5 Z"/></g>
<g><path style="opacity:1" fill="#f9faf9" d="M 114.5,294.5 C 115.833,295.167 115.833,295.167 114.5,294.5 Z"/></g>
<g><path style="opacity:1" fill="#20201f" d="M 376.5,271.5 C 371.346,301.198 354.179,321.198 325,331.5C 322.282,330.987 319.449,330.987 316.5,331.5C 318.664,327.709 321.331,327.042 324.5,329.5C 327.742,329.217 328.076,328.383 325.5,327C 326.646,326.355 327.646,325.522 328.5,324.5C 329.086,324.709 329.586,325.043 330,325.5C 331.864,323.045 331.698,320.878 329.5,319C 333.29,317.101 333.29,315.268 329.5,313.5C 335.833,309.229 341.999,304.562 348,299.5C 352.063,293.946 355.897,288.28 359.5,282.5C 361.39,283.18 363.39,283.347 365.5,283C 364.692,283.308 364.025,283.808 363.5,284.5C 364.641,285.425 364.641,286.259 363.5,287C 364.167,287.667 364.833,287.667 365.5,287C 366.167,285.667 367.167,284.667 368.5,284C 367.332,281.837 366.665,279.837 366.5,278C 367.025,277.308 367.692,276.808 368.5,276.5C 369.768,277.428 371.101,277.595 372.5,277C 374.025,275.207 375.358,273.374 376.5,271.5 Z"/></g>
<g><path style="opacity:1" fill="#f9faf9" d="M 461.5,298.5 C 462.833,299.167 462.833,299.167 461.5,298.5 Z"/></g>
<g><path style="opacity:1" fill="#f9faf9" d="M 61.5,300.5 C 62.8333,301.167 62.8333,301.167 61.5,300.5 Z"/></g>
<g><path style="opacity:1" fill="#c6dad3" d="M 257.5,295.5 C 258.254,298.256 258.254,300.922 257.5,303.5C 256.167,300.833 256.167,298.167 257.5,295.5 Z"/></g>
<g><path style="opacity:1" fill="#912c32" d="M 179.5,262.5 C 199.628,281.956 218.628,302.289 236.5,323.5C 235.883,323.611 235.383,323.944 235,324.5C 233.599,322.808 231.766,322.141 229.5,322.5C 229.5,321.167 229.5,319.833 229.5,318.5C 227.723,318.214 226.056,317.547 224.5,316.5C 221.778,316.954 219.111,317.62 216.5,318.5C 217.127,319.417 217.461,320.417 217.5,321.5C 215.37,319.873 213.37,318.04 211.5,316C 209.866,315.506 208.199,315.34 206.5,315.5C 206.657,314.127 206.49,312.793 206,311.5C 201.896,307.905 198.396,303.905 195.5,299.5C 188.436,293.438 182.103,286.772 176.5,279.5C 180.109,280.947 182.942,283.28 185,286.5C 185.5,286.333 186,286.167 186.5,286C 185.483,284.951 185.316,283.784 186,282.5C 186.333,282.833 186.667,283.167 187,283.5C 187.816,281.375 188.983,279.541 190.5,278C 189.022,276.522 187.522,275.022 186,273.5C 185.667,273.833 185.333,274.167 185,274.5C 182.432,273.62 181.932,272.12 183.5,270C 181.522,267.853 180.189,265.353 179.5,262.5 Z"/></g>
<g><path style="opacity:1" fill="#9c1e29" d="M 195.5,299.5 C 195.649,298.448 195.483,297.448 195,296.5C 192.711,294.075 190.544,291.575 188.5,289C 188.924,285.517 190.09,282.35 192,279.5C 193.522,282.224 195.689,284.224 198.5,285.5C 200.483,287.81 201.483,290.477 201.5,293.5C 204.292,293.452 206.125,294.785 207,297.5C 209.091,296.5 210.757,297.167 212,299.5C 212.572,301.892 213.738,303.892 215.5,305.5C 215.518,307.373 215.018,307.706 214,306.5C 213.167,307.333 212.333,308.167 211.5,309C 213.433,309.251 215.266,309.751 217,310.5C 218.099,307.956 219.265,307.956 220.5,310.5C 219.311,311.429 217.978,311.762 216.5,311.5C 216.5,312.833 216.5,314.167 216.5,315.5C 215.448,315.649 214.448,315.483 213.5,315C 207.584,309.571 201.584,304.405 195.5,299.5 Z"/></g>
<g><path style="opacity:1" fill="#f9faf9" d="M 126.5,309.5 C 127.833,310.167 127.833,310.167 126.5,309.5 Z"/></g>
<g><path style="opacity:1" fill="#1e1d1c" d="M 155.5,303.5 C 167.194,313.681 180.861,318.514 196.5,318C 199.928,316.141 203.262,315.307 206.5,315.5C 208.199,315.34 209.866,315.506 211.5,316C 213.37,318.04 215.37,319.873 217.5,321.5C 219.401,322.935 219.734,324.602 218.5,326.5C 215.079,329.196 211.079,330.53 206.5,330.5C 204.265,330.205 202.265,330.539 200.5,331.5C 200.167,331.5 199.833,331.5 199.5,331.5C 194.313,330.949 188.98,330.949 183.5,331.5C 176.596,331.149 170.096,329.483 164,326.5C 163.667,326.833 163.333,327.167 163,327.5C 158.767,324.271 154.267,321.438 149.5,319C 147.808,317.693 146.475,316.193 145.5,314.5C 146.598,313.603 146.598,312.77 145.5,312C 147.608,311.64 149.608,310.973 151.5,310C 151.982,308.992 152.148,307.825 152,306.5C 152.667,305.833 153.333,305.167 154,304.5C 155.107,305.712 155.607,305.379 155.5,303.5 Z"/></g>
<g><path style="opacity:1" fill="#98222b" d="M 293.5,310.5 C 292.4,311.605 291.733,312.938 291.5,314.5C 290.811,315.774 289.977,315.774 289,314.5C 285.965,317.87 282.632,320.87 279,323.5C 278.761,324.788 279.261,325.788 280.5,326.5C 278.167,326.833 276.833,328.167 276.5,330.5C 275.883,330.389 275.383,330.056 275,329.5C 270.381,333.558 267.548,338.558 266.5,344.5C 263.984,347.534 261.984,350.868 260.5,354.5C 260.704,351.455 260.704,348.621 260.5,346C 262.907,343.262 264.907,340.262 266.5,337C 266.14,335.348 265.807,333.682 265.5,332C 267.473,331.505 269.473,331.338 271.5,331.5C 271.167,329.5 270.833,327.5 270.5,325.5C 269.167,325.5 267.833,325.5 266.5,325.5C 267.808,324.768 269.142,323.934 270.5,323C 268.503,321.847 268.17,320.347 269.5,318.5C 273.215,313.741 277.382,309.407 282,305.5C 282.938,303.512 283.772,301.512 284.5,299.5C 287.127,298.908 289.794,298.575 292.5,298.5C 292.34,300.199 292.506,301.866 293,303.5C 294.14,301.922 294.64,300.256 294.5,298.5C 293.833,297.5 293.167,296.5 292.5,295.5C 294.007,294.261 295.174,294.595 296,296.5C 297.229,294.053 298.729,293.887 300.5,296C 299.887,298.147 299.221,300.314 298.5,302.5C 297.264,303.246 295.93,303.579 294.5,303.5C 294.326,305.861 293.993,308.194 293.5,310.5 Z"/></g>
<g><path style="opacity:1" fill="#f9faf9" d="M 43.5,315.5 C 44.8333,316.167 44.8333,316.167 43.5,315.5 Z"/></g>
<g><path style="opacity:1" fill="#1d1c1b" d="M 329.5,313.5 C 333.29,315.268 333.29,317.101 329.5,319C 331.698,320.878 331.864,323.045 330,325.5C 329.586,325.043 329.086,324.709 328.5,324.5C 327.646,325.522 326.646,326.355 325.5,327C 328.076,328.383 327.742,329.217 324.5,329.5C 321.331,327.042 318.664,327.709 316.5,331.5C 312.936,332.423 309.269,332.756 305.5,332.5C 301.705,331.383 297.705,330.717 293.5,330.5C 290.09,330.543 286.757,330.043 283.5,329C 282.058,328.623 281.058,327.79 280.5,326.5C 279.261,325.788 278.761,324.788 279,323.5C 282.632,320.87 285.965,317.87 289,314.5C 289.977,315.774 290.811,315.774 291.5,314.5C 296.673,316.417 302.007,317.75 307.5,318.5C 315.14,317.045 322.474,315.379 329.5,313.5 Z"/></g>
<g><path style="opacity:1" fill="#89292e" d="M 284.5,299.5 C 283.772,301.512 282.938,303.512 282,305.5C 277.382,309.407 273.215,313.741 269.5,318.5C 268.17,320.347 268.503,321.847 270.5,323C 269.142,323.934 267.808,324.768 266.5,325.5C 264.883,327.121 263.716,329.121 263,331.5C 261.667,332.167 260.667,333.167 260,334.5C 259.667,334.167 259.333,333.833 259,333.5C 258.689,334.742 259.189,335.742 260.5,336.5C 259.609,337.59 258.609,337.59 257.5,336.5C 255.19,338.644 253.19,340.978 251.5,343.5C 251.343,342.127 251.51,340.793 252,339.5C 255.855,335.069 258.689,330.069 260.5,324.5C 261.167,324.5 261.5,324.167 261.5,323.5C 268.487,314.846 276.154,306.846 284.5,299.5 Z"/></g>
<g><path style="opacity:1" fill="#f9faf9" d="M 483.5,324.5 C 484.833,325.167 484.833,325.167 483.5,324.5 Z"/></g>
<g><path style="opacity:1" fill="#1e4833" d="M 223.5,279.5 C 224.873,279.343 226.207,279.51 227.5,280C 226.366,281.016 226.699,281.683 228.5,282C 227.346,282.914 227.513,283.747 229,284.5C 230.049,283.483 231.216,283.316 232.5,284C 231.061,284.991 230.061,286.324 229.5,288C 231.017,289.779 231.851,289.279 232,286.5C 232.684,288.479 232.184,290.146 230.5,291.5C 231,292.5 231.5,293.5 232,294.5C 233,291.833 234,291.833 235,294.5C 235.278,293.584 235.778,292.918 236.5,292.5C 236.665,294.827 237.331,296.993 238.5,299C 237.446,300.388 237.28,301.888 238,303.5C 238.388,305.715 239.388,307.048 241,307.5C 241.754,312.309 242.921,316.975 244.5,321.5C 246.068,317.955 247.068,314.288 247.5,310.5C 248.451,311.919 248.784,313.585 248.5,315.5C 249.791,315.737 250.791,315.404 251.5,314.5C 252.726,316.942 254.059,319.276 255.5,321.5C 256.801,320.36 257.968,319.027 259,317.5C 259.186,320.036 259.686,322.369 260.5,324.5C 258.689,330.069 255.855,335.069 252,339.5C 251.51,340.793 251.343,342.127 251.5,343.5C 250.178,343.67 249.011,343.337 248,342.5C 244.913,336.36 241.746,330.36 238.5,324.5C 235.28,312.4 231.78,300.4 228,288.5C 226.645,285.357 225.145,282.357 223.5,279.5 Z"/></g>
<g><path style="opacity:1" fill="#949494" d="M 206.5,330.5 C 204.782,331.224 202.948,331.891 201,332.5C 200.601,332.272 200.435,331.938 200.5,331.5C 202.265,330.539 204.265,330.205 206.5,330.5 Z"/></g>
<g><path style="opacity:1" fill="#727272" d="M 199.5,331.5 C 194.167,332.833 188.833,332.833 183.5,331.5C 188.98,330.949 194.313,330.949 199.5,331.5 Z"/></g>
<g><path style="opacity:1" fill="#cecec9" d="M 293.5,330.5 C 297.705,330.717 301.705,331.383 305.5,332.5C 302.15,332.665 298.817,332.498 295.5,332C 294.584,331.722 293.918,331.222 293.5,330.5 Z"/></g>
<g><path style="opacity:1" fill="#f9faf9" d="M 109.5,332.5 C 110.833,333.167 110.833,333.167 109.5,332.5 Z"/></g>
<g><path style="opacity:1" fill="#f9faf9" d="M 447.5,333.5 C 448.833,334.167 448.833,334.167 447.5,333.5 Z"/></g>
<g><path style="opacity:1" fill="#94272f" d="M 236.5,323.5 C 237.167,323.833 237.833,324.167 238.5,324.5C 241.746,330.36 244.913,336.36 248,342.5C 249.011,343.337 250.178,343.67 251.5,343.5C 250.399,344.598 249.066,344.765 247.5,344C 246.54,342.581 245.707,341.081 245,339.5C 244.667,340.833 244.333,342.167 244,343.5C 243.311,342.643 242.478,341.977 241.5,341.5C 240.702,343.078 240.202,344.744 240,346.5C 239.282,345.549 238.449,345.383 237.5,346C 238.249,347.734 238.749,349.567 239,351.5C 240.829,353.156 242.163,355.156 243,357.5C 243.499,361.821 243.666,366.154 243.5,370.5C 241.082,361.506 237.749,352.839 233.5,344.5C 232.088,338.685 228.921,334.019 224,330.5C 223.617,331.056 223.117,331.389 222.5,331.5C 222.631,328.633 221.297,326.967 218.5,326.5C 219.734,324.602 219.401,322.935 217.5,321.5C 217.461,320.417 217.127,319.417 216.5,318.5C 219.111,317.62 221.778,316.954 224.5,316.5C 226.056,317.547 227.723,318.214 229.5,318.5C 229.5,319.833 229.5,321.167 229.5,322.5C 231.766,322.141 233.599,322.808 235,324.5C 235.383,323.944 235.883,323.611 236.5,323.5 Z"/></g>
<g><path style="opacity:1" fill="#201d1c" d="M 276.5,330.5 C 285.98,348.077 295.314,365.743 304.5,383.5C 303.312,382.316 302.145,382.316 301,383.5C 301.195,381.874 301.195,380.207 301,378.5C 298.611,377.683 296.778,375.683 295.5,372.5C 296.609,371.035 296.109,370.035 294,369.5C 292.886,373.299 291.553,373.299 290,369.5C 288.295,372.351 286.462,375.018 284.5,377.5C 283.514,375.574 282.514,373.574 281.5,371.5C 280.163,366.999 278.33,362.666 276,358.5C 275.184,357.177 274.017,356.511 272.5,356.5C 272.611,355.883 272.944,355.383 273.5,355C 270.288,352.072 267.954,348.572 266.5,344.5C 267.548,338.558 270.381,333.558 275,329.5C 275.383,330.056 275.883,330.389 276.5,330.5 Z"/></g>
<g><path style="opacity:1" fill="#9a1e29" d="M 266.5,325.5 C 267.833,325.5 269.167,325.5 270.5,325.5C 270.833,327.5 271.167,329.5 271.5,331.5C 269.473,331.338 267.473,331.505 265.5,332C 265.807,333.682 266.14,335.348 266.5,337C 264.907,340.262 262.907,343.262 260.5,346C 260.704,348.621 260.704,351.455 260.5,354.5C 258.799,355.525 257.465,357.025 256.5,359C 255.542,364.547 254.542,370.047 253.5,375.5C 254.833,375.5 256.167,375.5 257.5,375.5C 256.167,376.933 254.667,378.267 253,379.5C 251.333,378.167 249.667,376.833 248,375.5C 248.582,370.212 247.915,370.212 246,375.5C 245.95,373.256 245.117,371.589 243.5,370.5C 243.666,366.154 243.499,361.821 243,357.5C 242.163,355.156 240.829,353.156 239,351.5C 238.749,349.567 238.249,347.734 237.5,346C 238.449,345.383 239.282,345.549 240,346.5C 240.202,344.744 240.702,343.078 241.5,341.5C 242.478,341.977 243.311,342.643 244,343.5C 244.333,342.167 244.667,340.833 245,339.5C 245.707,341.081 246.54,342.581 247.5,344C 249.066,344.765 250.399,344.598 251.5,343.5C 253.19,340.978 255.19,338.644 257.5,336.5C 258.609,337.59 259.609,337.59 260.5,336.5C 259.189,335.742 258.689,334.742 259,333.5C 259.333,333.833 259.667,334.167 260,334.5C 260.667,333.167 261.667,332.167 263,331.5C 263.716,329.121 264.883,327.121 266.5,325.5 Z"/></g>
<g><path style="opacity:1" fill="#1d1a17" d="M 233.5,344.5 C 230.147,347.868 227.814,351.868 226.5,356.5C 225.784,356.783 224.951,357.116 224,357.5C 222.219,360.333 220.719,363.333 219.5,366.5C 219.043,367.298 218.376,367.631 217.5,367.5C 217.778,365.654 217.111,364.32 215.5,363.5C 214.33,367.939 212.83,368.272 211,364.5C 210.667,364.833 210.333,365.167 210,365.5C 210.148,364.175 209.982,363.008 209.5,362C 210.167,361.667 210.833,361.333 211.5,361C 210.364,359.855 209.364,358.688 208.5,357.5C 213.185,348.794 217.852,340.127 222.5,331.5C 223.117,331.389 223.617,331.056 224,330.5C 228.921,334.019 232.088,338.685 233.5,344.5 Z"/></g>
<g><path style="opacity:1" fill="#964548" d="M 260.5,354.5 C 258.164,361.017 256.664,367.684 256,374.5C 257.731,371.932 259.898,369.932 262.5,368.5C 262.611,369.117 262.944,369.617 263.5,370C 261.304,371.699 259.304,373.533 257.5,375.5C 256.167,375.5 254.833,375.5 253.5,375.5C 254.542,370.047 255.542,364.547 256.5,359C 257.465,357.025 258.799,355.525 260.5,354.5 Z"/></g>
<g><path style="opacity:1" fill="#f9faf9" d="M 424.5,362.5 C 425.833,363.167 425.833,363.167 424.5,362.5 Z"/></g>
<g><path style="opacity:1" fill="#f9faf9" d="M 479.5,365.5 C 480.833,366.167 480.833,366.167 479.5,365.5 Z"/></g>
<g><path style="opacity:1" fill="#9a232c" d="M 272.5,356.5 C 274.017,356.511 275.184,357.177 276,358.5C 278.33,362.666 280.163,366.999 281.5,371.5C 280.883,371.389 280.383,371.056 280,370.5C 275.605,376.397 270.438,381.397 264.5,385.5C 263.833,385.5 263.5,385.833 263.5,386.5C 259.808,389.862 256.141,393.195 252.5,396.5C 249.882,396.221 247.382,395.554 245,394.5C 244.289,392.633 244.789,391.133 246.5,390C 244.406,388.648 242.073,388.148 239.5,388.5C 239.608,383.979 237.608,380.812 233.5,379C 233.833,378.667 234.167,378.333 234.5,378C 232.874,378.195 231.207,378.195 229.5,378C 226.681,375.238 224.348,372.072 222.5,368.5C 222.824,366.431 223.658,366.098 225,367.5C 225.212,364.668 225.379,362.002 225.5,359.5C 227.389,361.432 229.389,363.265 231.5,365C 232.448,365.483 233.448,365.649 234.5,365.5C 237.467,368.302 240.3,371.302 243,374.5C 243.49,373.207 243.657,371.873 243.5,370.5C 245.117,371.589 245.95,373.256 246,375.5C 247.915,370.212 248.582,370.212 248,375.5C 249.667,376.833 251.333,378.167 253,379.5C 254.667,378.267 256.167,376.933 257.5,375.5C 259.304,373.533 261.304,371.699 263.5,370C 262.944,369.617 262.611,369.117 262.5,368.5C 265.781,364.544 269.114,360.544 272.5,356.5 Z"/></g>
<g><path style="opacity:1" fill="#f9faf9" d="M 195.5,380.5 C 194.833,379.167 194.833,379.167 195.5,380.5 Z"/></g>
<g><path style="opacity:1" fill="#89272f" d="M 226.5,356.5 C 228.788,359.791 231.455,362.791 234.5,365.5C 233.448,365.649 232.448,365.483 231.5,365C 229.389,363.265 227.389,361.432 225.5,359.5C 225.379,362.002 225.212,364.668 225,367.5C 223.658,366.098 222.824,366.431 222.5,368.5C 224.348,372.072 226.681,375.238 229.5,378C 231.207,378.195 232.874,378.195 234.5,378C 234.167,378.333 233.833,378.667 233.5,379C 237.608,380.812 239.608,383.979 239.5,388.5C 242.073,388.148 244.406,388.648 246.5,390C 244.789,391.133 244.289,392.633 245,394.5C 247.382,395.554 249.882,396.221 252.5,396.5C 251.647,398.926 249.981,399.76 247.5,399C 243.224,394.553 238.891,390.387 234.5,386.5C 229.325,381.394 224.325,376.061 219.5,370.5C 218.449,369.778 217.782,368.778 217.5,367.5C 218.376,367.631 219.043,367.298 219.5,366.5C 220.719,363.333 222.219,360.333 224,357.5C 224.951,357.116 225.784,356.783 226.5,356.5 Z"/></g>
<g><path style="opacity:1" fill="#1a1918" d="M 304.5,383.5 C 308.083,388.399 311.083,393.732 313.5,399.5C 313.376,400.107 313.043,400.44 312.5,400.5C 289.164,400.667 265.831,400.5 242.5,400C 240.038,398.706 237.705,397.206 235.5,395.5C 232.059,394.631 228.726,393.464 225.5,392C 226.711,390.887 226.711,389.72 225.5,388.5C 228.306,387.832 230.972,387.166 233.5,386.5C 233.833,386.5 234.167,386.5 234.5,386.5C 238.891,390.387 243.224,394.553 247.5,399C 249.981,399.76 251.647,398.926 252.5,396.5C 256.141,393.195 259.808,389.862 263.5,386.5C 271.833,387.833 280.167,387.833 288.5,386.5C 289.833,386.167 289.833,385.833 288.5,385.5C 287.797,383.284 286.464,381.451 284.5,380C 285.598,379.23 285.598,378.397 284.5,377.5C 286.462,375.018 288.295,372.351 290,369.5C 291.553,373.299 292.886,373.299 294,369.5C 296.109,370.035 296.609,371.035 295.5,372.5C 296.778,375.683 298.611,377.683 301,378.5C 301.195,380.207 301.195,381.874 301,383.5C 302.145,382.316 303.312,382.316 304.5,383.5 Z"/></g>
<g><path style="opacity:1" fill="#2f2f2e" d="M 208.5,357.5 C 209.364,358.688 210.364,359.855 211.5,361C 210.833,361.333 210.167,361.667 209.5,362C 209.982,363.008 210.148,364.175 210,365.5C 210.333,365.167 210.667,364.833 211,364.5C 212.83,368.272 214.33,367.939 215.5,363.5C 217.111,364.32 217.778,365.654 217.5,367.5C 217.782,368.778 218.449,369.778 219.5,370.5C 216.236,374.722 213.236,379.222 210.5,384C 213.633,385.361 216.967,386.194 220.5,386.5C 224.681,386.17 229.014,386.17 233.5,386.5C 230.972,387.166 228.306,387.832 225.5,388.5C 226.711,389.72 226.711,390.887 225.5,392C 228.726,393.464 232.059,394.631 235.5,395.5C 237.705,397.206 240.038,398.706 242.5,400C 265.831,400.5 289.164,400.667 312.5,400.5C 270.669,401.665 228.669,401.831 186.5,401C 186.043,400.586 185.709,400.086 185.5,399.5C 189.099,393.302 192.432,386.969 195.5,380.5C 199.579,372.674 203.912,365.008 208.5,357.5 Z"/></g>
<g><path style="opacity:1" fill="#635c5b" d="M 264.5,385.5 C 272.678,386.521 280.678,386.521 288.5,385.5C 288.5,385.833 288.5,386.167 288.5,386.5C 280.167,387.833 271.833,387.833 263.5,386.5C 263.5,385.833 263.833,385.5 264.5,385.5 Z"/></g>
<g><path style="opacity:1" fill="#f9faf9" d="M 393.5,387.5 C 394.833,388.167 394.833,388.167 393.5,387.5 Z"/></g>
<g><path style="opacity:1" fill="#f9faf9" d="M 316.5,397.5 C 317.833,398.167 317.833,398.167 316.5,397.5 Z"/></g>
<g><path style="opacity:1" fill="#f9faf9" d="M 261.5,404.5 C 262.833,405.167 262.833,405.167 261.5,404.5 Z"/></g>
<g><path style="opacity:1" fill="#f9faf9" d="M 457.5,412.5 C 458.833,413.167 458.833,413.167 457.5,412.5 Z"/></g>
<g><path style="opacity:1" fill="#f9faf9" d="M 145.5,415.5 C 146.833,416.167 146.833,416.167 145.5,415.5 Z"/></g>
<g><path style="opacity:1" fill="#f9faf9" d="M 204.5,416.5 C 205.833,417.167 205.833,417.167 204.5,416.5 Z"/></g>
<g><path style="opacity:1" fill="#f9faf9" d="M 108.5,421.5 C 109.833,422.167 109.833,422.167 108.5,421.5 Z"/></g>
<g><path style="opacity:1" fill="#f9faf9" d="M 256.5,427.5 C 257.833,428.167 257.833,428.167 256.5,427.5 Z"/></g>
<g><path style="opacity:1" fill="#f9faf9" d="M 64.5,431.5 C 65.8333,432.167 65.8333,432.167 64.5,431.5 Z"/></g>
<g><path style="opacity:1" fill="#f9faf9" d="M 261.5,439.5 C 262.833,440.167 262.833,440.167 261.5,439.5 Z"/></g>
<g><path style="opacity:1" fill="#f9faf9" d="M 314.5,444.5 C 315.833,445.167 315.833,445.167 314.5,444.5 Z"/></g>
<g><path style="opacity:1" fill="#f9faf9" d="M 133.5,447.5 C 134.833,448.167 134.833,448.167 133.5,447.5 Z"/></g>
<g><path style="opacity:1" fill="#f9faf9" d="M 17.5,460.5 C 18.8333,461.167 18.8333,461.167 17.5,460.5 Z"/></g>
<g><path style="opacity:1" fill="#f9faf9" d="M 149.5,462.5 C 150.833,463.167 150.833,463.167 149.5,462.5 Z"/></g>
<g><path style="opacity:1" fill="#f9faf9" d="M 291.5,467.5 C 292.833,468.167 292.833,468.167 291.5,467.5 Z"/></g>
<g><path style="opacity:1" fill="#f9faf9" d="M 15.5,469.5 C 16.8333,470.167 16.8333,470.167 15.5,469.5 Z"/></g>
<g><path style="opacity:1" fill="#f9faf9" d="M 130.5,469.5 C 131.833,470.167 131.833,470.167 130.5,469.5 Z"/></g>
<g><path style="opacity:1" fill="#f9faf9" d="M 87.5,471.5 C 88.8333,472.167 88.8333,472.167 87.5,471.5 Z"/></g>
<g><path style="opacity:1" fill="#f9faf9" d="M 83.5,473.5 C 84.8333,474.167 84.8333,474.167 83.5,473.5 Z"/></g>
<g><path style="opacity:1" fill="#f9faf9" d="M 7.5,484.5 C 8.83333,485.167 8.83333,485.167 7.5,484.5 Z"/></g>
<g><path style="opacity:1" fill="#f9faf9" d="M 308.5,495.5 C 309.833,496.167 309.833,496.167 308.5,495.5 Z"/></g>
</svg>
